#!OML:ASF F:\VICON\USERDATA\INSTALL\rory3\rory3.ASF
:FULLY-SPECIFIED
:DEGREES
304
root -0.900717 18.2843 -1.34449 5.41795 -5.00007 2.8452
lowerback 12.3473 -0.0945046 -0.503401
upperback 3.09979 -0.199313 -0.139662
thorax -3.67107 -0.0976336 0.168944
lowerneck -9.76397 -0.973642 -7.27805
upperneck -0.958297 -0.648038 6.79045
head 1.48144 -0.165868 3.50917
rclavicle -1.53064e-014 -6.36111e-015
rhumerus -26.2536 0.280085 -82.5321
rradius 30.1226
rwrist 11.6115
rhand -25.2399 -2.68254
rfingers 7.12502
rthumb 1.27983 -32.6584
lclavicle -1.53064e-014 -6.36111e-015
lhumerus -23.3004 10.1475 80.1271
lradius 32.4017
lwrist 2.65699
lhand -20.7249 25.4606
lfingers 7.12502
lthumb 5.63994 55.3656
rfemur -19.5382 12.7991 15.7965
rtibia 44.4061
rfoot -24.26 -12.3469
rtoes -5.51406
lfemur -16.3382 1.15883 -19.8867
ltibia 38.2121
lfoot -20.9522 5.98383
ltoes -7.95418
305
root -0.910572 18.3103 -1.34141 5.57786 -4.98543 2.88164
lowerback 12.1552 -0.0824353 -0.637172
upperback 2.99633 -0.199904 -0.16545
thorax -3.67354 -0.096765 0.217247
lowerneck -9.63887 -0.956984 -7.25581
upperneck -0.877679 -0.637885 6.74321
head 1.48377 -0.164043 3.48842
rclavicle 8.94531e-016 1.07344e-014
rhumerus -26.3648 0.453096 -82.5699
rradius 30.1945
rwrist 11.451
rhand -25.1988 -2.76347
rfingers 7.12502
rthumb 1.31954 -32.7391
lclavicle 8.94531e-016 1.07344e-014
lhumerus -23.4698 10.2152 79.9835
lradius 32.4002
lwrist 2.58077
lhand -20.5284 25.5431
lfingers 7.12502
lthumb 5.82967 55.443
rfemur -19.4619 12.9704 15.7524
rtibia 43.8748
rfoot -24.4219 -12.518
rtoes -5.63718
lfemur -16.1973 1.12002 -19.9145
ltibia 37.6011
lfoot -20.7746 6.11305
ltoes -7.90521
306
root -0.920488 18.3314 -1.34162 5.69258 -4.9613 2.85625
lowerback 12.046 -0.0704804 -0.703848
upperback 2.87935 -0.191925 -0.169484
thorax -3.73568 -0.0917958 0.249327
lowerneck -9.52293 -0.954842 -7.10553
upperneck -0.771081 -0.65762 6.54477
head 1.49507 -0.180417 3.38876
rclavicle -1.73937e-014 -1.07344e-014
rhumerus -26.4925 0.452087 -82.5447
rradius 30.1436
rwrist 11.4495
rhand -24.9422 -2.2945
rfingers 7.12502
rthumb 1.56735 -32.2685
lclavicle -1.73937e-014 -1.07344e-014
lhumerus -23.6797 10.1968 79.8813
lradius 32.2628
lwrist 2.38589
lhand -20.7119 24.8887
lfingers 7.12502
lthumb 5.65253 54.7933
rfemur -19.3087 13.1454 15.795
rtibia 43.3208
rfoot -24.3723 -12.6779
rtoes -5.53359
lfemur -16.0282 1.01203 -19.859
ltibia 36.9872
lfoot -20.5379 6.24088
ltoes -7.71382
307
root -0.92772 18.3507 -1.33515 5.70378 -4.94845 2.75273
lowerback 11.9546 -0.0550317 -0.679368
upperback 2.818 -0.167211 -0.153485
thorax -3.74984 -0.0795165 0.248347
lowerneck -9.41256 -0.963113 -7.04056
upperneck -0.696975 -0.682807 6.45362
head 1.49947 -0.1969 3.34302
rclavicle 8.64713e-015 4.77083e-015
rhumerus -26.7044 0.480921 -82.5369
rradius 30.2366
rwrist 11.4629
rhand -25.1159 -1.86168
rfingers 7.12502
rthumb 1.39961 -31.8368
lclavicle 8.64713e-015 4.77083e-015
lhumerus -23.8095 10.2659 79.7747
lradius 31.9912
lwrist 2.16123
lhand -20.9065 24.5461
lfingers 7.12502
lthumb 5.46463 54.4556
rfemur -18.935 13.2984 15.9443
rtibia 42.7185
rfoot -24.2706 -12.792
rtoes -5.62981
lfemur -15.6949 0.911902 -19.729
ltibia 36.3942
lfoot -20.3515 6.34443
ltoes -7.95568
308
root -0.933421 18.3712 -1.32298 5.68899 -4.98193 2.73596
lowerback 11.8158 -0.0235096 -0.701314
upperback 2.78828 -0.127816 -0.170048
thorax -3.70497 -0.0599694 0.237382
lowerneck -9.3871 -0.963806 -7.18968
upperneck -0.625747 -0.674464 6.56714
head 1.52105 -0.19089 3.41268
rclavicle 1.43125e-014 2.5842e-014
rhumerus -26.8661 0.560803 -82.529
rradius 30.3606
rwrist 11.3545
rhand -25.2113 -1.71644
rfingers 7.12502
rthumb 1.30753 -31.6922
lclavicle 1.43125e-014 2.5842e-014
lhumerus -23.9358 10.3845 79.6707
lradius 31.8449
lwrist 2.14445
lhand -20.627 25.0105
lfingers 7.12502
lthumb 5.73444 54.9129
rfemur -18.4842 13.4104 15.9875
rtibia 42.0772
rfoot -24.2079 -12.7799
rtoes -5.49599
lfemur -15.2718 0.794664 -19.7124
ltibia 35.7678
lfoot -20.2553 6.48904
ltoes -8.01784
309
root -0.937963 18.392 -1.31065 5.72743 -4.98219 2.67886
lowerback 11.637 -0.0165861 -0.670518
upperback 2.75909 -0.113869 -0.179825
thorax -3.63745 -0.0534462 0.207546
lowerneck -9.62222 -0.923911 -7.23929
upperneck -0.395381 -0.609812 6.61235
head 1.63608 -0.154843 3.44588
rclavicle -2.60408e-014 -1.51076e-014
rhumerus -26.9012 0.569699 -82.5075
rradius 30.3437
rwrist 11.3265
rhand -25.0906 -1.92396
rfingers 7.12502
rthumb 1.42408 -31.899
lclavicle -2.60408e-014 -1.51076e-014
lhumerus -24.0409 10.5571 79.5402
lradius 31.7157
lwrist 2.11362
lhand -20.2451 25.3021
lfingers 7.12502
lthumb 6.10318 55.1942
rfemur -18.075 13.4496 16.0705
rtibia 41.3919
rfoot -24.038 -12.8044
rtoes -5.32353
lfemur -14.881 0.659058 -19.6504
ltibia 35.0888
lfoot -20.1474 6.65855
ltoes -8.17519
310
root -0.941457 18.4142 -1.29769 5.70433 -4.98585 2.73289
lowerback 11.4695 -0.00213725 -0.757241
upperback 2.79527 -0.104538 -0.211662
thorax -3.50765 -0.0487579 0.221719
lowerneck -10.0443 -0.90483 -7.18626
upperneck -0.152923 -0.56936 6.53171
head 1.7885 -0.131037 3.41633
rclavicle 8.24956e-015 7.95139e-016
rhumerus -26.8337 0.588953 -82.4713
rradius 30.3097
rwrist 11.2463
rhand -25.0755 -2.52933
rfingers 7.12502
rthumb 1.43865 -32.5042
lclavicle 8.24956e-015 7.95139e-016
lhumerus -24.0671 10.7739 79.4599
lradius 31.532
lwrist 1.90422
lhand -20.259 25.0621
lfingers 7.12502
lthumb 6.08979 54.9546
rfemur -17.6473 13.4919 16.04
rtibia 40.7006
rfoot -23.8316 -12.8951
rtoes -5.3493
lfemur -14.4154 0.508544 -19.7138
ltibia 34.3707
lfoot -20.0353 6.84035
ltoes -8.11152
311
root -0.945685 18.4371 -1.28251 5.70865 -5.03914 2.75636
lowerback 11.3023 0.0335654 -0.842393
upperback 2.75031 -0.0665963 -0.23481
thorax -3.46281 -0.0294572 0.240129
lowerneck -10.289 -0.918062 -7.13866
upperneck 0.130352 -0.584777 6.47113
head 1.92741 -0.137658 3.39142
rclavicle 7.95139e-015 1.03368e-014
rhumerus -26.9133 0.421367 -82.3837
rradius 30.2451
rwrist 11.4424
rhand -25.0305 -2.79458
rfingers 7.12502
rthumb 1.48208 -32.7692
lclavicle 7.95139e-015 1.03368e-014
lhumerus -24.2807 10.9247 79.3628
lradius 31.4492
lwrist 1.91501
lhand -20.1282 25.2315
lfingers 7.12502
lthumb 6.21608 55.1203
rfemur -17.2523 13.6209 16.0351
rtibia 39.9984
rfoot -23.5954 -13.0177
rtoes -5.43329
lfemur -13.966 0.351195 -19.7547
ltibia 33.6712
lfoot -19.9742 7.04468
ltoes -7.8643
312
root -0.951831 18.4583 -1.26918 5.80403 -5.05021 2.61521
lowerback 11.0953 0.0508003 -0.775897
upperback 2.63556 -0.0339516 -0.220796
thorax -3.46883 -0.0133513 0.212584
lowerneck -10.3192 -0.899996 -7.06383
upperneck 0.355283 -0.573847 6.42941
head 2.0058 -0.133482 3.36618
rclavicle 3.97569e-016 -5.76476e-015
rhumerus -27.0595 0.0735504 -82.2725
rradius 30.1499
rwrist 11.8885
rhand -24.719 -2.38002
rfingers 7.12502
rthumb 1.783 -32.3523
lclavicle 3.97569e-016 -5.76476e-015
lhumerus -24.5876 11.0295 79.228
lradius 31.3815
lwrist 1.9054
lhand -19.9791 25.5529
lfingers 7.12502
lthumb 6.36 55.4375
rfemur -16.9495 13.7661 16.2303
rtibia 39.3096
rfoot -23.296 -13.322
rtoes -5.72774
lfemur -13.6191 0.102691 -19.5962
ltibia 32.9779
lfoot -19.888 7.25977
ltoes -7.30866
313
root -0.957934 18.4765 -1.25701 5.91305 -5.00991 2.46409
lowerback 10.8076 0.0366255 -0.681188
upperback 2.58643 -0.0390133 -0.210297
thorax -3.36156 -0.0166585 0.170754
lowerneck -10.2568 -0.862968 -7.00801
upperneck 0.28634 -0.532117 6.41417
head 1.96724 -0.113461 3.35038
rclavicle -5.46658e-015 -7.35503e-015
rhumerus -27.0942 -0.149927 -82.208
rradius 30.0745
rwrist 12.1537
rhand -24.7262 -1.83937
rfingers 7.12502
rthumb 1.776 -31.8117
lclavicle -5.46658e-015 -7.35503e-015
lhumerus -24.7521 11.2131 79.0799
lradius 31.2219
lwrist 1.64884
lhand -19.813 25.6217
lfingers 7.12502
lthumb 6.52031 55.5014
rfemur -16.6393 13.8394 16.4397
rtibia 38.6373
rfoot -23.1104 -13.6268
rtoes -5.97095
lfemur -13.3058 -0.121046 -19.4274
ltibia 32.289
lfoot -19.7418 7.50162
ltoes -7.13024
314
root -0.961518 18.4936 -1.24545 5.96383 -4.99644 2.36118
lowerback 10.542 0.0253318 -0.591908
upperback 2.56225 -0.0423543 -0.220283
thorax -3.24039 -0.0191498 0.110486
lowerneck -10.4334 -0.871438 -7.03035
upperneck 0.490453 -0.538119 6.4529
head 2.06936 -0.113668 3.37294
rclavicle 1.65985e-014 1.66979e-014
rhumerus -27.1592 -0.196839 -82.1785
rradius 30.0127
rwrist 12.1566
rhand -25.0353 -1.66307
rfingers 7.12502
rthumb 1.47752 -31.6377
lclavicle 1.65985e-014 1.66979e-014
lhumerus -24.9332 11.3903 78.9365
lradius 31.0721
lwrist 1.19856
lhand -19.5951 25.8307
lfingers 7.12502
lthumb 6.73069 55.7037
rfemur -16.2526 13.8328 16.5823
rtibia 37.9987
rfoot -23.0234 -13.7535
rtoes -5.95948
lfemur -12.9391 -0.244789 -19.3387
ltibia 31.6008
lfoot -19.6385 7.75329
ltoes -7.26441
315
root -0.963463 18.5109 -1.2317 5.98577 -4.9934 2.32752
lowerback 10.3391 0.0224135 -0.551402
upperback 2.50451 -0.0418933 -0.258587
thorax -3.18859 -0.0191986 0.047859
lowerneck -10.6746 -0.909237 -7.08172
upperneck 0.847302 -0.582163 6.52174
head 2.23904 -0.131747 3.41307
rclavicle -3.8266e-015 -1.98785e-014
rhumerus -27.2161 -0.344061 -82.1425
rradius 29.8239
rwrist 12.2361
rhand -25.2793 -1.88731
rfingers 7.12502
rthumb 1.24186 -31.8634
lclavicle -3.8266e-015 -1.98785e-014
lhumerus -25.1662 11.5265 78.7832
lradius 30.9215
lwrist 0.9143
lhand -19.4622 26.0401
lfingers 7.12502
lthumb 6.85899 55.9089
rfemur -15.8602 13.8773 16.6532
rtibia 37.385
rfoot -22.9001 -13.9234
rtoes -5.85974
lfemur -12.5319 -0.402906 -19.3314
ltibia 30.8972
lfoot -19.5688 7.99546
ltoes -6.95347
